<svg width="1200" height="1200" viewBox="0 0 1200 1200" fill="none" xmlns="http://www.w3.org/2000/svg">
<rect width="1200" height="1200" fill="#1A1A1A"/>
<path d="M401.631 402.225L398.283 476.079C397.911 482.42 397.167 486.709 396.05 488.947C395.306 490.812 393.446 491.745 390.469 491.745C387.865 491.745 385.819 490.812 384.33 488.947C383.214 487.082 382.098 484.471 380.982 481.114C380.238 477.757 379.307 473.841 378.191 469.365C377.075 464.889 375.773 459.853 374.285 454.258C369.076 442.323 362.006 434.863 353.077 431.879C344.147 428.522 331.125 426.843 314.01 426.843H305.081C302.848 426.843 300.988 427.962 299.5 430.2C298.383 432.065 297.825 433.93 297.825 435.795V709.948C297.825 715.916 297.825 720.764 297.825 724.494C298.197 728.224 298.755 731.395 299.5 734.006C300.616 736.244 302.104 738.109 303.964 739.601C306.197 741.093 309.173 742.398 312.894 743.517C316.243 744.636 319.405 745.382 322.382 745.755C325.358 745.755 327.963 745.942 330.195 746.315C332.427 746.688 334.102 747.434 335.218 748.553C336.706 749.672 337.45 751.723 337.45 754.707C337.45 759.929 333.544 762.54 325.73 762.54C319.777 762.54 312.336 761.981 303.406 760.862C294.849 759.37 284.617 758.624 272.711 758.624C261.177 758.624 250.945 759.37 242.016 760.862C233.086 761.981 225.645 762.54 219.692 762.54C211.878 762.54 207.972 759.556 207.972 753.588C207.972 750.977 208.716 749.112 210.204 747.993C211.692 746.874 213.553 746.128 215.785 745.755C218.017 745.382 220.622 745.196 223.598 745.196C226.575 745.196 229.551 744.636 232.528 743.517C239.597 741.279 243.876 738.109 245.364 734.006C246.852 729.903 247.597 721.883 247.597 709.948V437.474C247.597 435.236 246.852 432.998 245.364 430.76C244.248 428.149 242.574 426.843 240.341 426.843H224.715C213.181 426.843 203.693 429.081 196.252 433.557C188.81 438.033 181.555 444.747 174.486 453.699C167.789 464.889 162.58 473.654 158.859 479.995C155.511 486.336 151.604 489.507 147.139 489.507H146.023C144.535 489.507 143.232 489.134 142.116 488.388C141.372 487.642 141 485.404 141 481.674C141 481.301 141.186 480.182 141.558 478.317C141.93 476.452 142.488 474.4 143.232 472.162L157.185 415.094C159.045 406.515 160.347 399.614 161.091 394.392C162.208 389.17 164.626 386.559 168.347 386.559C169.835 386.559 170.951 387.492 171.695 389.357C172.812 391.222 173.742 393.46 174.486 396.071C175.602 398.309 176.532 400.547 177.276 402.785C178.02 404.65 179.323 405.582 181.183 405.582C184.532 408.939 193.275 410.618 207.414 410.618C212.622 410.618 218.576 410.618 225.273 410.618C231.97 410.245 239.411 410.058 247.597 410.058H316.243C325.544 410.058 333.73 410.245 340.799 410.618C348.24 410.991 354.565 411.177 359.774 411.177C368.704 411.177 374.657 410.245 377.633 408.38C380.238 406.888 382.284 404.836 383.772 402.225C385.633 399.614 387.121 397.19 388.237 394.952C389.353 392.341 390.469 390.289 391.586 388.797C392.702 386.932 394.004 386 395.492 386C397.725 386 399.213 387.305 399.957 389.916C401.073 392.154 401.631 394.206 401.631 396.071V402.225Z" fill="white"/>
<path d="M428.73 516.362V538.183C428.73 541.54 429.288 543.218 430.404 543.218C431.148 543.218 432.823 541.913 435.427 539.302L446.589 526.993C458.495 512.819 471.145 505.732 484.54 505.732C494.586 505.732 503.143 509.462 510.212 516.922C517.281 524.382 520.816 533.707 520.816 544.897C520.816 553.102 518.212 559.816 513.003 565.038C508.166 570.26 502.213 572.871 495.144 572.871C489.563 572.871 484.726 571.566 480.633 568.955C476.54 565.971 472.82 562.8 469.471 559.443C466.123 556.086 462.96 553.102 459.984 550.492C457.007 547.508 454.03 546.016 451.054 546.016C437.288 546.016 430.404 563.546 430.404 598.608V720.018C430.404 726.359 431.149 731.208 432.637 734.565C434.125 737.549 437.102 739.974 441.566 741.839C446.031 744.077 450.124 745.569 453.844 746.315C457.565 746.688 460.542 747.247 462.774 747.993C465.378 748.366 467.425 749.112 468.913 750.231C470.401 751.35 471.145 753.402 471.145 756.386C471.145 758.624 470.029 760.675 467.797 762.54C465.937 764.032 462.96 764.778 458.867 764.778C451.426 764.778 443.241 764.032 434.311 762.54C425.754 761.421 416.638 760.862 406.964 760.862C398.035 760.862 389.663 761.421 381.85 762.54C374.409 763.659 367.711 764.219 361.758 764.219C355.061 764.219 351.713 761.235 351.713 755.267C351.713 752.656 352.271 750.977 353.387 750.231C354.503 749.112 355.991 748.366 357.852 747.993C359.712 747.247 361.944 746.688 364.549 746.315C367.153 745.942 369.944 745.009 372.92 743.517C378.129 740.906 381.106 738.295 381.85 735.684C382.966 732.7 383.524 728.597 383.524 723.375V580.145C383.524 573.431 382.222 568.955 379.618 566.717C377.385 564.479 374.781 562.987 371.804 562.241C369.2 561.495 366.595 560.935 363.991 560.562C361.758 559.816 360.642 557.765 360.642 554.408C360.642 550.305 363.061 547.321 367.897 545.456C372.734 543.218 379.059 539.488 386.873 534.266C397.663 526.806 405.476 520.092 410.313 514.124C415.522 507.783 419.8 504.613 423.149 504.613C426.87 504.613 428.73 508.529 428.73 516.362Z" fill="white"/>
<path d="M601.12 516.362V720.578C601.12 727.292 601.678 732.327 602.794 735.684C604.283 739.041 606.701 741.652 610.05 743.517C613.026 745.009 615.817 745.942 618.421 746.315C621.398 746.688 623.816 747.247 625.676 747.993C627.909 748.366 629.583 749.112 630.699 750.231C632.188 751.35 632.932 753.215 632.932 755.826C632.932 761.794 629.583 764.778 622.886 764.778C617.305 764.778 610.608 764.032 602.794 762.54C594.981 761.421 586.61 760.862 577.68 760.862C568.006 760.862 559.821 761.421 553.124 762.54C546.427 764.032 541.032 764.778 536.939 764.778C531.358 764.778 528.567 761.608 528.567 755.267C528.567 752.656 528.94 750.791 529.684 749.672C530.8 748.553 532.102 747.807 533.59 747.434C535.451 747.061 537.311 746.874 539.171 746.874C541.032 746.501 543.078 745.755 545.31 744.636C549.403 742.398 551.822 739.787 552.566 736.803C553.682 733.446 554.24 728.038 554.24 720.578V588.537C554.24 578.466 552.938 571.752 550.333 568.395C548.101 565.038 545.496 562.987 542.52 562.241C539.915 561.122 537.311 560.562 534.707 560.562C532.474 560.189 531.358 558.138 531.358 554.408C531.358 550.305 533.776 546.948 538.613 544.337C543.822 541.726 551.077 537.81 560.379 532.588C565.96 529.231 570.611 525.874 574.331 522.517C578.424 519.16 581.773 516.176 584.377 513.565C586.238 511.7 594.175 506.354 596.04 507.41C598.442 507.41 601.12 508.529 601.12 516.362Z" fill="white"/>
<path d="M689.485 448.166V540.048C689.485 542.286 689.857 543.405 690.602 543.405C691.718 543.405 693.206 542.472 695.066 540.607L701.764 533.893C712.181 523.076 721.855 515.243 730.785 510.394C740.086 505.172 750.876 502.561 763.154 502.561C775.432 502.561 787.152 505.545 798.314 511.513C809.476 517.481 819.15 526.06 827.335 537.25C835.521 548.067 842.032 561.308 846.869 576.974C851.706 592.64 854.124 609.984 854.124 629.007C854.124 649.895 851.334 668.918 845.753 686.076C840.172 703.234 832.172 717.967 821.755 730.276C811.709 742.585 799.617 752.096 785.478 758.81C771.712 765.897 756.457 769.441 739.714 769.441C706.849 769.441 683.594 759.059 683.594 759.059C683.594 759.059 666.045 752.656 652.589 743.517C646.902 739.655 644.838 735.746 644.28 727.976C643.412 715.902 642.605 710.88 642.605 695.587V458.237C642.605 453.388 641.931 448.543 637.086 446.115C621.584 438.344 625.986 424.232 643.163 419.632C660.34 415.032 665.673 410.307 671.626 406.204C677.951 401.728 682.044 399.49 683.904 399.49C686.881 399.49 688.741 400.423 689.485 402.288C690.23 404.153 690.602 406.763 690.602 410.12C690.602 415.715 690.416 421.683 690.044 428.024C689.671 433.992 689.485 440.706 689.485 448.166ZM689.485 700.063C689.485 717.967 693.392 731.208 701.206 739.787C709.391 748.366 720.553 752.656 734.691 752.656C745.481 752.656 755.341 750.045 764.271 744.823C773.2 739.601 780.827 732.327 787.152 723.002C793.85 713.305 798.872 701.928 802.221 688.873C805.942 675.445 807.802 660.899 807.802 645.233C807.802 611.663 800.733 585.926 786.594 568.022C772.828 549.746 755.341 540.607 734.133 540.607C723.343 540.607 714.972 542.472 709.019 546.202C703.066 549.932 698.601 555.154 695.625 561.868C692.648 568.582 690.788 576.788 690.044 586.486C689.671 595.811 689.485 606.255 689.485 617.817V700.063Z" fill="white"/>
<path d="M958.426 583.688C976.657 583.688 989.866 581.637 998.051 577.534C1006.61 573.431 1010.89 565.225 1010.89 552.916C1010.89 543.591 1006.98 535.012 999.167 527.179C991.726 519.346 982.052 515.43 970.146 515.43C957.124 515.43 945.776 520.465 936.102 530.536C926.429 540.607 920.104 553.289 917.127 568.582L915.453 577.534V578.653C915.453 582.01 917.685 583.688 922.15 583.688H958.426ZM1041.02 601.033H917.685C914.709 601.033 912.848 601.592 912.104 602.711C911.36 603.83 910.988 606.254 910.988 609.984V623.412C910.988 658.101 918.243 685.516 932.754 705.658C947.636 725.8 966.798 735.871 990.238 735.871C1000.66 735.871 1009.59 734.192 1017.03 730.835C1024.84 727.478 1031.16 723.748 1036 719.645C1041.21 715.543 1045.12 711.813 1047.72 708.456C1050.7 705.099 1052.74 703.42 1053.86 703.42C1056.84 703.42 1058.33 705.472 1058.33 709.575C1058.33 713.678 1056.09 719.086 1051.63 725.8C1047.16 732.514 1040.65 739.228 1032.1 745.942C1023.91 752.283 1014.05 757.878 1002.52 762.727C990.982 767.576 977.96 770 963.449 770C948.195 770 934.242 766.83 921.592 760.489C909.314 754.521 898.71 745.755 889.78 734.192C880.851 722.629 873.968 708.642 869.131 692.23C864.294 675.818 861.875 657.355 861.875 636.84C861.875 616.325 864.48 597.862 869.689 581.45C875.27 564.665 882.897 550.492 892.571 538.929C902.245 527.366 913.592 518.414 926.615 512.073C940.009 505.732 954.52 502.561 970.146 502.561C983.541 502.561 995.819 504.986 1006.98 509.835C1018.14 514.311 1027.63 520.465 1035.44 528.298C1043.26 536.131 1049.21 545.27 1053.3 555.713C1057.77 566.157 1060 577.347 1060 589.283C1060 594.132 1058.51 597.303 1055.54 598.795C1052.56 600.287 1047.72 601.033 1041.02 601.033Z" fill="white"/>
<path d="M606.081 440.395C606.081 461.854 592.199 479.249 575.076 479.249C557.952 479.249 544.07 461.854 544.07 440.395C544.07 418.937 557.952 401.542 575.076 401.542C592.199 401.542 606.081 418.937 606.081 440.395Z" fill="white"/>
</svg>
