<svg width="32" height="32" viewBox="0 0 32 32" fill="none" xmlns="http://www.w3.org/2000/svg">
  <rect width="32" height="32" rx="6" fill="#1a1a1a"/>
  <path d="M22.5 8.5L22.35 11.1C22.34 11.32 22.31 11.47 22.27 11.55C22.24 11.62 22.18 11.65 22.07 11.65C21.98 11.65 21.9 11.62 21.85 11.55C21.81 11.48 21.77 11.39 21.73 11.27C21.7 11.15 21.67 11.02 21.63 10.86C21.59 10.7 21.54 10.53 21.49 10.33C21.3 9.91 21.05 9.65 20.73 9.54C20.41 9.42 19.95 9.36 19.35 9.36H19.04C18.96 9.36 18.89 9.4 18.84 9.48C18.8 9.54 18.78 9.61 18.78 9.67V19.33C18.78 19.54 18.78 19.71 18.78 19.84C18.79 19.97 18.81 20.08 18.84 20.17C18.88 20.25 18.93 20.31 19 20.37C19.08 20.42 19.18 20.47 19.31 20.51C19.43 20.55 19.54 20.58 19.65 20.59C19.75 20.59 19.84 20.6 19.92 20.61C20 20.62 20.06 20.65 20.1 20.69C20.15 20.73 20.18 20.8 20.18 20.9C20.18 21.09 20.04 21.18 19.77 21.18C19.56 21.18 19.3 21.16 18.99 21.12C18.69 21.07 18.33 21.04 17.91 21.04C17.5 21.04 17.14 21.07 16.83 21.12C16.52 21.16 16.26 21.18 16.05 21.18C15.77 21.18 15.63 21.08 15.63 20.87C15.63 20.78 15.66 20.71 15.71 20.67C15.76 20.63 15.83 20.6 15.91 20.59C15.99 20.57 16.08 20.56 16.18 20.56C16.29 20.56 16.39 20.54 16.5 20.5C16.75 20.42 16.9 20.31 16.95 20.17C17 20.02 17.03 19.74 17.03 19.33V9.72C17.03 9.64 17 9.56 16.95 9.48C16.91 9.39 16.85 9.36 16.77 9.36H16.22C15.81 9.36 15.48 9.44 15.21 9.6C14.95 9.75 14.69 9.99 14.44 10.3C14.21 10.7 14.02 11.01 13.89 11.23C13.77 11.45 13.63 11.56 13.47 11.56H13.43C13.38 11.56 13.33 11.55 13.29 11.52C13.27 11.5 13.25 11.42 13.25 11.29C13.25 11.28 13.26 11.24 13.27 11.17C13.28 11.11 13.3 11.03 13.33 10.95L13.82 8.94C13.89 8.64 13.93 8.4 13.96 8.22C14 8.03 14.09 7.94 14.22 7.94C14.27 7.94 14.31 7.97 14.34 8.03C14.38 8.1 14.41 8.18 14.44 8.27C14.48 8.35 14.51 8.43 14.54 8.51C14.56 8.58 14.61 8.61 14.67 8.61C14.79 8.72 15.1 8.78 15.6 8.78C15.78 8.78 15.99 8.78 16.23 8.78C16.46 8.77 16.73 8.76 17.02 8.76H19.44C19.77 8.76 20.06 8.77 20.31 8.78C20.57 8.79 20.79 8.8 20.98 8.8C21.29 8.8 21.5 8.77 21.6 8.7C21.69 8.65 21.76 8.57 21.81 8.48C21.88 8.39 21.93 8.3 21.97 8.22C22.01 8.13 22.05 8.05 22.09 8C22.13 7.93 22.18 7.9 22.23 7.9C22.31 7.9 22.36 7.95 22.38 8.04C22.42 8.12 22.44 8.2 22.44 8.27L22.5 8.5Z" fill="white"/>
</svg>
